<mxfile host="app.diagrams.net" agent="Mozilla/5.0 (Windows NT 10.0; Win64; x64) AppleWebKit/537.36 (KHTML, like Gecko) Chrome/135.0.0.0 Safari/537.36" version="26.2.14">
  <diagram name="Page-1" id="lj1Uw8uawjYsJd0u0cby">
    <mxGraphModel dx="4126" dy="2628" grid="1" gridSize="10" guides="1" tooltips="1" connect="1" arrows="1" fold="1" page="1" pageScale="1" pageWidth="850" pageHeight="1100" math="0" shadow="0">
      <root>
        <mxCell id="0" />
        <mxCell id="1" parent="0" />
        <mxCell id="Mo0ocinDTHDunQUOEJIZ-1" value="" style="shape=umlLifeline;perimeter=lifelinePerimeter;whiteSpace=wrap;html=1;container=1;dropTarget=0;collapsible=0;recursiveResize=0;outlineConnect=0;portConstraint=eastwest;newEdgeStyle={&quot;curved&quot;:0,&quot;rounded&quot;:0};participant=umlActor;" parent="1" vertex="1">
          <mxGeometry x="-840" y="-40" width="30" height="1720" as="geometry" />
        </mxCell>
        <mxCell id="Mo0ocinDTHDunQUOEJIZ-2" value="Company" style="text;html=1;align=center;verticalAlign=middle;resizable=0;points=[];autosize=1;strokeColor=none;fillColor=none;fontSize=14;fontStyle=1" parent="1" vertex="1">
          <mxGeometry x="-870" y="-72" width="80" height="30" as="geometry" />
        </mxCell>
        <mxCell id="Mo0ocinDTHDunQUOEJIZ-4" value="company-homepage" style="shape=umlLifeline;perimeter=lifelinePerimeter;whiteSpace=wrap;html=1;container=1;dropTarget=0;collapsible=0;recursiveResize=0;outlineConnect=0;portConstraint=eastwest;newEdgeStyle={&quot;curved&quot;:0,&quot;rounded&quot;:0};fontSize=14;fontStyle=1" parent="1" vertex="1">
          <mxGeometry x="-720" y="-42" width="160" height="1720" as="geometry" />
        </mxCell>
        <mxCell id="Mo0ocinDTHDunQUOEJIZ-5" value="" style="html=1;points=[[0,0,0,0,5],[0,1,0,0,-5],[1,0,0,0,5],[1,1,0,0,-5]];perimeter=orthogonalPerimeter;outlineConnect=0;targetShapes=umlLifeline;portConstraint=eastwest;newEdgeStyle={&quot;curved&quot;:0,&quot;rounded&quot;:0};strokeColor=#000000;fillColor=#dae8fc;" parent="Mo0ocinDTHDunQUOEJIZ-4" vertex="1">
          <mxGeometry x="75" y="82" width="10" height="70" as="geometry" />
        </mxCell>
        <mxCell id="Mo0ocinDTHDunQUOEJIZ-6" value="Selects &quot;Create Position&quot;" style="text;html=1;align=center;verticalAlign=middle;resizable=0;points=[];autosize=1;strokeColor=none;fillColor=none;fontSize=13;fontStyle=2" parent="1" vertex="1">
          <mxGeometry x="-820" y="30" width="170" height="30" as="geometry" />
        </mxCell>
        <mxCell id="Mo0ocinDTHDunQUOEJIZ-7" value="" style="endArrow=classic;html=1;rounded=0;" parent="1" edge="1">
          <mxGeometry width="50" height="50" relative="1" as="geometry">
            <mxPoint x="-825.25" y="60" as="sourcePoint" />
            <mxPoint x="-644.75" y="60" as="targetPoint" />
          </mxGeometry>
        </mxCell>
        <mxCell id="Mo0ocinDTHDunQUOEJIZ-8" value="CompanyController" style="shape=umlLifeline;perimeter=lifelinePerimeter;whiteSpace=wrap;html=1;container=1;dropTarget=0;collapsible=0;recursiveResize=0;outlineConnect=0;portConstraint=eastwest;newEdgeStyle={&quot;curved&quot;:0,&quot;rounded&quot;:0};fontSize=14;fontStyle=1" parent="1" vertex="1">
          <mxGeometry x="-520" y="-40" width="160" height="1720" as="geometry" />
        </mxCell>
        <mxCell id="Mo0ocinDTHDunQUOEJIZ-88" value="" style="html=1;points=[[0,0,0,0,5],[0,1,0,0,-5],[1,0,0,0,5],[1,1,0,0,-5]];perimeter=orthogonalPerimeter;outlineConnect=0;targetShapes=umlLifeline;portConstraint=eastwest;newEdgeStyle={&quot;curved&quot;:0,&quot;rounded&quot;:0};strokeColor=#000000;fillColor=#dae8fc;" parent="Mo0ocinDTHDunQUOEJIZ-8" vertex="1">
          <mxGeometry x="75" y="910" width="10" height="60" as="geometry" />
        </mxCell>
        <mxCell id="Mo0ocinDTHDunQUOEJIZ-12" value="showCreatePositionForm()" style="text;html=1;align=center;verticalAlign=middle;resizable=0;points=[];autosize=1;strokeColor=none;fillColor=none;fontSize=13;fontStyle=2" parent="1" vertex="1">
          <mxGeometry x="-630" y="60" width="180" height="30" as="geometry" />
        </mxCell>
        <mxCell id="Mo0ocinDTHDunQUOEJIZ-13" value="" style="endArrow=classic;html=1;rounded=0;" parent="1" source="Mo0ocinDTHDunQUOEJIZ-9" edge="1">
          <mxGeometry width="50" height="50" relative="1" as="geometry">
            <mxPoint x="-637.25" y="90" as="sourcePoint" />
            <mxPoint x="-442.75" y="90" as="targetPoint" />
          </mxGeometry>
        </mxCell>
        <mxCell id="Mo0ocinDTHDunQUOEJIZ-14" value="TraineeshipPosition" style="shape=umlLifeline;perimeter=lifelinePerimeter;whiteSpace=wrap;html=1;container=1;dropTarget=0;collapsible=0;recursiveResize=0;outlineConnect=0;portConstraint=eastwest;newEdgeStyle={&quot;curved&quot;:0,&quot;rounded&quot;:0};fontSize=14;fontStyle=1" parent="1" vertex="1">
          <mxGeometry x="-320" y="-42" width="160" height="1720" as="geometry" />
        </mxCell>
        <mxCell id="Mo0ocinDTHDunQUOEJIZ-19" value="" style="html=1;points=[[0,0,0,0,5],[0,1,0,0,-5],[1,0,0,0,5],[1,1,0,0,-5]];perimeter=orthogonalPerimeter;outlineConnect=0;targetShapes=umlLifeline;portConstraint=eastwest;newEdgeStyle={&quot;curved&quot;:0,&quot;rounded&quot;:0};strokeColor=#000000;fillColor=#dae8fc;" parent="Mo0ocinDTHDunQUOEJIZ-14" vertex="1">
          <mxGeometry x="75" y="142" width="10" height="48" as="geometry" />
        </mxCell>
        <mxCell id="Mo0ocinDTHDunQUOEJIZ-18" value="&quot;create&quot;" style="html=1;verticalAlign=bottom;endArrow=open;dashed=1;endSize=8;curved=0;rounded=0;fontSize=13;fontStyle=2" parent="1" edge="1">
          <mxGeometry relative="1" as="geometry">
            <mxPoint x="-435" y="110" as="sourcePoint" />
            <mxPoint x="-245" y="110" as="targetPoint" />
          </mxGeometry>
        </mxCell>
        <mxCell id="Mo0ocinDTHDunQUOEJIZ-20" value="" style="endArrow=classic;html=1;rounded=0;" parent="1" target="Mo0ocinDTHDunQUOEJIZ-24" edge="1">
          <mxGeometry width="50" height="50" relative="1" as="geometry">
            <mxPoint x="-435" y="180" as="sourcePoint" />
            <mxPoint x="-30" y="180" as="targetPoint" />
          </mxGeometry>
        </mxCell>
        <mxCell id="Mo0ocinDTHDunQUOEJIZ-21" value="CreatePosition" style="shape=umlLifeline;perimeter=lifelinePerimeter;whiteSpace=wrap;html=1;container=1;dropTarget=0;collapsible=0;recursiveResize=0;outlineConnect=0;portConstraint=eastwest;newEdgeStyle={&quot;curved&quot;:0,&quot;rounded&quot;:0};fontSize=14;fontStyle=1" parent="1" vertex="1">
          <mxGeometry x="-120" y="-40" width="200" height="1720" as="geometry" />
        </mxCell>
        <mxCell id="Mo0ocinDTHDunQUOEJIZ-24" value="" style="html=1;points=[[0,0,0,0,5],[0,1,0,0,-5],[1,0,0,0,5],[1,1,0,0,-5]];perimeter=orthogonalPerimeter;outlineConnect=0;targetShapes=umlLifeline;portConstraint=eastwest;newEdgeStyle={&quot;curved&quot;:0,&quot;rounded&quot;:0};strokeColor=#000000;fillColor=#dae8fc;" parent="Mo0ocinDTHDunQUOEJIZ-21" vertex="1">
          <mxGeometry x="95" y="200" width="10" height="170" as="geometry" />
        </mxCell>
        <mxCell id="Mo0ocinDTHDunQUOEJIZ-25" value="&quot;call&quot;" style="text;html=1;align=center;verticalAlign=middle;resizable=0;points=[];autosize=1;strokeColor=none;fillColor=none;fontSize=13;fontStyle=2" parent="1" vertex="1">
          <mxGeometry x="-370" y="148" width="50" height="30" as="geometry" />
        </mxCell>
        <mxCell id="Mo0ocinDTHDunQUOEJIZ-27" value="" style="endArrow=classic;html=1;rounded=0;" parent="1" edge="1">
          <mxGeometry width="50" height="50" relative="1" as="geometry">
            <mxPoint x="-825" y="250" as="sourcePoint" />
            <mxPoint x="-24.5" y="250" as="targetPoint" />
          </mxGeometry>
        </mxCell>
        <mxCell id="Mo0ocinDTHDunQUOEJIZ-28" value="fill the form &amp;amp;&amp;nbsp;&lt;div&gt;click &quot;Save Position&quot;&lt;/div&gt;" style="text;html=1;align=center;verticalAlign=middle;resizable=0;points=[];autosize=1;strokeColor=none;fillColor=none;fontStyle=2;fontSize=13;" parent="1" vertex="1">
          <mxGeometry x="-810" y="200" width="140" height="40" as="geometry" />
        </mxCell>
        <mxCell id="Mo0ocinDTHDunQUOEJIZ-32" value="savePosition()" style="text;html=1;align=center;verticalAlign=middle;resizable=0;points=[];autosize=1;strokeColor=none;fillColor=none;fontSize=13;fontStyle=2" parent="1" vertex="1">
          <mxGeometry x="-170" y="290" width="110" height="30" as="geometry" />
        </mxCell>
        <mxCell id="Mo0ocinDTHDunQUOEJIZ-38" value="CompanyService" style="shape=umlLifeline;perimeter=lifelinePerimeter;whiteSpace=wrap;html=1;container=1;dropTarget=0;collapsible=0;recursiveResize=0;outlineConnect=0;portConstraint=eastwest;newEdgeStyle={&quot;curved&quot;:0,&quot;rounded&quot;:0};fontSize=14;fontStyle=1" parent="1" vertex="1">
          <mxGeometry x="120" y="-42" width="170" height="1400" as="geometry" />
        </mxCell>
        <mxCell id="Mo0ocinDTHDunQUOEJIZ-39" value="" style="html=1;points=[[0,0,0,0,5],[0,1,0,0,-5],[1,0,0,0,5],[1,1,0,0,-5]];perimeter=orthogonalPerimeter;outlineConnect=0;targetShapes=umlLifeline;portConstraint=eastwest;newEdgeStyle={&quot;curved&quot;:0,&quot;rounded&quot;:0};strokeColor=#000000;fillColor=#dae8fc;" parent="Mo0ocinDTHDunQUOEJIZ-38" vertex="1">
          <mxGeometry x="80" y="372" width="10" height="188" as="geometry" />
        </mxCell>
        <mxCell id="Mo0ocinDTHDunQUOEJIZ-43" value="Company" style="shape=umlLifeline;perimeter=lifelinePerimeter;whiteSpace=wrap;html=1;container=1;dropTarget=0;collapsible=0;recursiveResize=0;outlineConnect=0;portConstraint=eastwest;newEdgeStyle={&quot;curved&quot;:0,&quot;rounded&quot;:0};fontSize=14;fontStyle=1" parent="1" vertex="1">
          <mxGeometry x="320" y="-42" width="120" height="1400" as="geometry" />
        </mxCell>
        <mxCell id="Mo0ocinDTHDunQUOEJIZ-44" value="" style="html=1;points=[[0,0,0,0,5],[0,1,0,0,-5],[1,0,0,0,5],[1,1,0,0,-5]];perimeter=orthogonalPerimeter;outlineConnect=0;targetShapes=umlLifeline;portConstraint=eastwest;newEdgeStyle={&quot;curved&quot;:0,&quot;rounded&quot;:0};strokeColor=#000000;fillColor=#dae8fc;" parent="Mo0ocinDTHDunQUOEJIZ-43" vertex="1">
          <mxGeometry x="55" y="422" width="10" height="98" as="geometry" />
        </mxCell>
        <mxCell id="Mo0ocinDTHDunQUOEJIZ-50" value="alt" style="shape=umlFrame;whiteSpace=wrap;html=1;pointerEvents=0;" parent="1" vertex="1">
          <mxGeometry x="-890" y="188" width="2100" height="662" as="geometry" />
        </mxCell>
        <mxCell id="Mo0ocinDTHDunQUOEJIZ-51" value="Fill correct the form" style="text;html=1;align=center;verticalAlign=middle;resizable=0;points=[];autosize=1;strokeColor=#666666;fillColor=#f5f5f5;fontSize=14;fontStyle=2;fontColor=#333333;" parent="1" vertex="1">
          <mxGeometry x="-405" y="200" width="140" height="30" as="geometry" />
        </mxCell>
        <mxCell id="Mo0ocinDTHDunQUOEJIZ-30" value="" style="html=1;points=[[0,0,0,0,5],[0,1,0,0,-5],[1,0,0,0,5],[1,1,0,0,-5]];perimeter=orthogonalPerimeter;outlineConnect=0;targetShapes=umlLifeline;portConstraint=eastwest;newEdgeStyle={&quot;curved&quot;:0,&quot;rounded&quot;:0};strokeColor=#000000;fillColor=#dae8fc;" parent="1" vertex="1">
          <mxGeometry x="-445" y="280" width="10" height="90" as="geometry" />
        </mxCell>
        <mxCell id="Mo0ocinDTHDunQUOEJIZ-31" value="" style="endArrow=classic;html=1;rounded=0;" parent="1" edge="1">
          <mxGeometry width="50" height="50" relative="1" as="geometry">
            <mxPoint x="-25" y="320" as="sourcePoint" />
            <mxPoint x="-435" y="320" as="targetPoint" />
          </mxGeometry>
        </mxCell>
        <mxCell id="Mo0ocinDTHDunQUOEJIZ-41" value="" style="endArrow=classic;html=1;rounded=0;" parent="1" target="Mo0ocinDTHDunQUOEJIZ-39" edge="1">
          <mxGeometry width="50" height="50" relative="1" as="geometry">
            <mxPoint x="-439.5" y="360" as="sourcePoint" />
            <mxPoint x="195" y="360" as="targetPoint" />
          </mxGeometry>
        </mxCell>
        <mxCell id="Mo0ocinDTHDunQUOEJIZ-42" value="addPosition()" style="text;html=1;align=center;verticalAlign=middle;resizable=0;points=[];autosize=1;strokeColor=none;fillColor=none;fontSize=13;fontStyle=2" parent="1" vertex="1">
          <mxGeometry x="-410" y="330" width="100" height="30" as="geometry" />
        </mxCell>
        <mxCell id="Mo0ocinDTHDunQUOEJIZ-53" value="getPositions()" style="text;html=1;align=center;verticalAlign=middle;resizable=0;points=[];autosize=1;strokeColor=none;fillColor=none;fontSize=13;fontStyle=2" parent="1" vertex="1">
          <mxGeometry x="250" y="378" width="100" height="30" as="geometry" />
        </mxCell>
        <mxCell id="Mo0ocinDTHDunQUOEJIZ-48" value="add(position)" style="html=1;align=left;spacingLeft=2;endArrow=block;rounded=0;edgeStyle=orthogonalEdgeStyle;curved=0;rounded=0;fontSize=13;fontStyle=2" parent="1" edge="1">
          <mxGeometry relative="1" as="geometry">
            <mxPoint x="390" y="422.95" as="sourcePoint" />
            <Array as="points">
              <mxPoint x="420" y="452.95" />
            </Array>
            <mxPoint x="395" y="453.00882352941215" as="targetPoint" />
          </mxGeometry>
        </mxCell>
        <mxCell id="Mo0ocinDTHDunQUOEJIZ-46" value="" style="endArrow=classic;html=1;rounded=0;" parent="1" source="Mo0ocinDTHDunQUOEJIZ-39" target="Mo0ocinDTHDunQUOEJIZ-44" edge="1">
          <mxGeometry width="50" height="50" relative="1" as="geometry">
            <mxPoint x="257.5" y="410" as="sourcePoint" />
            <mxPoint x="433" y="410" as="targetPoint" />
            <Array as="points">
              <mxPoint x="300" y="410" />
            </Array>
          </mxGeometry>
        </mxCell>
        <mxCell id="Mo0ocinDTHDunQUOEJIZ-54" value="CompanyDAORepository" style="shape=umlLifeline;perimeter=lifelinePerimeter;whiteSpace=wrap;html=1;container=1;dropTarget=0;collapsible=0;recursiveResize=0;outlineConnect=0;portConstraint=eastwest;newEdgeStyle={&quot;curved&quot;:0,&quot;rounded&quot;:0};fontSize=14;fontStyle=1" parent="1" vertex="1">
          <mxGeometry x="480" y="-40" width="210" height="1400" as="geometry" />
        </mxCell>
        <mxCell id="Mo0ocinDTHDunQUOEJIZ-56" value="" style="html=1;points=[[0,0,0,0,5],[0,1,0,0,-5],[1,0,0,0,5],[1,1,0,0,-5]];perimeter=orthogonalPerimeter;outlineConnect=0;targetShapes=umlLifeline;portConstraint=eastwest;newEdgeStyle={&quot;curved&quot;:0,&quot;rounded&quot;:0};strokeColor=#000000;fillColor=#dae8fc;" parent="Mo0ocinDTHDunQUOEJIZ-54" vertex="1">
          <mxGeometry x="95" y="510" width="10" height="80" as="geometry" />
        </mxCell>
        <mxCell id="Mo0ocinDTHDunQUOEJIZ-94" value="" style="html=1;points=[[0,0,0,0,5],[0,1,0,0,-5],[1,0,0,0,5],[1,1,0,0,-5]];perimeter=orthogonalPerimeter;outlineConnect=0;targetShapes=umlLifeline;portConstraint=eastwest;newEdgeStyle={&quot;curved&quot;:0,&quot;rounded&quot;:0};strokeColor=#000000;fillColor=#dae8fc;" parent="Mo0ocinDTHDunQUOEJIZ-54" vertex="1">
          <mxGeometry x="310" y="1112" width="10" height="90" as="geometry" />
        </mxCell>
        <mxCell id="Mo0ocinDTHDunQUOEJIZ-97" value="show successful&amp;nbsp;&lt;div&gt;message&lt;/div&gt;" style="html=1;align=left;spacingLeft=2;endArrow=block;rounded=0;edgeStyle=orthogonalEdgeStyle;curved=0;rounded=0;fontSize=13;fontStyle=2" parent="Mo0ocinDTHDunQUOEJIZ-54" edge="1">
          <mxGeometry relative="1" as="geometry">
            <mxPoint x="320" y="1162" as="sourcePoint" />
            <Array as="points">
              <mxPoint x="350" y="1192" />
            </Array>
            <mxPoint x="325" y="1192.0588235294122" as="targetPoint" />
          </mxGeometry>
        </mxCell>
        <mxCell id="Mo0ocinDTHDunQUOEJIZ-57" value="" style="endArrow=classic;html=1;rounded=0;" parent="1" source="Mo0ocinDTHDunQUOEJIZ-39" target="Mo0ocinDTHDunQUOEJIZ-56" edge="1">
          <mxGeometry width="50" height="50" relative="1" as="geometry">
            <mxPoint x="217.5" y="500" as="sourcePoint" />
            <mxPoint x="382.5" y="500" as="targetPoint" />
            <Array as="points">
              <mxPoint x="307.5" y="500" />
            </Array>
          </mxGeometry>
        </mxCell>
        <mxCell id="Mo0ocinDTHDunQUOEJIZ-58" value="save()" style="text;html=1;align=center;verticalAlign=middle;resizable=0;points=[];autosize=1;strokeColor=none;fillColor=none;fontSize=13;fontStyle=2" parent="1" vertex="1">
          <mxGeometry x="260" y="468" width="60" height="30" as="geometry" />
        </mxCell>
        <mxCell id="Mo0ocinDTHDunQUOEJIZ-59" value="Not filling mandatory fields in the form" style="text;html=1;align=center;verticalAlign=middle;resizable=0;points=[];autosize=1;strokeColor=#666666;fillColor=#f5f5f5;fontSize=14;fontStyle=2;fontColor=#333333;" parent="1" vertex="1">
          <mxGeometry x="-465" y="535" width="260" height="30" as="geometry" />
        </mxCell>
        <mxCell id="Mo0ocinDTHDunQUOEJIZ-60" value="&lt;font style=&quot;font-size: 13px;&quot;&gt;&lt;i&gt;return TraineeshipPosition&lt;/i&gt;&lt;/font&gt;" style="html=1;verticalAlign=bottom;endArrow=open;dashed=1;endSize=8;curved=0;rounded=0;" parent="1" source="Mo0ocinDTHDunQUOEJIZ-19" edge="1">
          <mxGeometry x="-0.0339" relative="1" as="geometry">
            <mxPoint x="-245" y="129.99999999999977" as="sourcePoint" />
            <mxPoint x="-435" y="138" as="targetPoint" />
            <Array as="points">
              <mxPoint x="-299" y="138" />
            </Array>
            <mxPoint as="offset" />
          </mxGeometry>
        </mxCell>
        <mxCell id="Mo0ocinDTHDunQUOEJIZ-61" value="" style="endArrow=classic;html=1;rounded=0;" parent="1" target="Mo0ocinDTHDunQUOEJIZ-9" edge="1">
          <mxGeometry width="50" height="50" relative="1" as="geometry">
            <mxPoint x="-637.25" y="90" as="sourcePoint" />
            <mxPoint x="-442.75" y="90" as="targetPoint" />
          </mxGeometry>
        </mxCell>
        <mxCell id="Mo0ocinDTHDunQUOEJIZ-9" value="" style="html=1;points=[[0,0,0,0,5],[0,1,0,0,-5],[1,0,0,0,5],[1,1,0,0,-5]];perimeter=orthogonalPerimeter;outlineConnect=0;targetShapes=umlLifeline;portConstraint=eastwest;newEdgeStyle={&quot;curved&quot;:0,&quot;rounded&quot;:0};strokeColor=#000000;fillColor=#dae8fc;" parent="1" vertex="1">
          <mxGeometry x="-445" y="60" width="10" height="130" as="geometry" />
        </mxCell>
        <mxCell id="Mo0ocinDTHDunQUOEJIZ-63" value="" style="endArrow=classic;html=1;rounded=0;" parent="1" edge="1">
          <mxGeometry width="50" height="50" relative="1" as="geometry">
            <mxPoint x="-825" y="590" as="sourcePoint" />
            <mxPoint x="-24.5" y="590" as="targetPoint" />
          </mxGeometry>
        </mxCell>
        <mxCell id="Mo0ocinDTHDunQUOEJIZ-64" value="" style="html=1;points=[[0,0,0,0,5],[0,1,0,0,-5],[1,0,0,0,5],[1,1,0,0,-5]];perimeter=orthogonalPerimeter;outlineConnect=0;targetShapes=umlLifeline;portConstraint=eastwest;newEdgeStyle={&quot;curved&quot;:0,&quot;rounded&quot;:0};strokeColor=#000000;fillColor=#dae8fc;" parent="1" vertex="1">
          <mxGeometry x="-25" y="560" width="10" height="90" as="geometry" />
        </mxCell>
        <mxCell id="Mo0ocinDTHDunQUOEJIZ-65" value="not filling mandatory&amp;nbsp;&lt;div&gt;fields in the form &amp;amp;&amp;nbsp;&lt;div&gt;click &quot;Save Position&quot;&lt;/div&gt;&lt;/div&gt;" style="text;html=1;align=center;verticalAlign=middle;resizable=0;points=[];autosize=1;strokeColor=none;fillColor=none;fontStyle=2;fontSize=13;" parent="1" vertex="1">
          <mxGeometry x="-810" y="530" width="140" height="60" as="geometry" />
        </mxCell>
        <mxCell id="Mo0ocinDTHDunQUOEJIZ-66" value="show error message" style="html=1;align=left;spacingLeft=2;endArrow=block;rounded=0;edgeStyle=orthogonalEdgeStyle;curved=0;rounded=0;fontSize=13;fontStyle=2" parent="1" edge="1">
          <mxGeometry relative="1" as="geometry">
            <mxPoint x="-15" y="610" as="sourcePoint" />
            <Array as="points">
              <mxPoint x="15" y="640" />
            </Array>
            <mxPoint x="-10" y="640.0588235294122" as="targetPoint" />
          </mxGeometry>
        </mxCell>
        <mxCell id="Mo0ocinDTHDunQUOEJIZ-67" value="" style="html=1;points=[[0,0,0,0,5],[0,1,0,0,-5],[1,0,0,0,5],[1,1,0,0,-5]];perimeter=orthogonalPerimeter;outlineConnect=0;targetShapes=umlLifeline;portConstraint=eastwest;newEdgeStyle={&quot;curved&quot;:0,&quot;rounded&quot;:0};strokeColor=#000000;fillColor=#dae8fc;" parent="1" vertex="1">
          <mxGeometry x="-25" y="730" width="10" height="90" as="geometry" />
        </mxCell>
        <mxCell id="Mo0ocinDTHDunQUOEJIZ-68" value="Fill the fields and clicks &quot;Cancel&quot;" style="text;html=1;align=center;verticalAlign=middle;resizable=0;points=[];autosize=1;strokeColor=#666666;fillColor=#f5f5f5;fontSize=14;fontStyle=2;fontColor=#333333;" parent="1" vertex="1">
          <mxGeometry x="-455" y="680" width="220" height="30" as="geometry" />
        </mxCell>
        <mxCell id="Mo0ocinDTHDunQUOEJIZ-69" value="" style="endArrow=classic;html=1;rounded=0;" parent="1" edge="1">
          <mxGeometry width="50" height="50" relative="1" as="geometry">
            <mxPoint x="-825" y="750" as="sourcePoint" />
            <mxPoint x="-24.5" y="750" as="targetPoint" />
          </mxGeometry>
        </mxCell>
        <mxCell id="Mo0ocinDTHDunQUOEJIZ-72" value="Filling the mandatory&amp;nbsp;&lt;div&gt;fields in the form &amp;amp;&amp;nbsp;&lt;div&gt;click &quot;Cancel&quot;&lt;/div&gt;&lt;/div&gt;" style="text;html=1;align=center;verticalAlign=middle;resizable=0;points=[];autosize=1;strokeColor=none;fillColor=none;fontStyle=2;fontSize=13;" parent="1" vertex="1">
          <mxGeometry x="-810" y="680" width="150" height="60" as="geometry" />
        </mxCell>
        <mxCell id="Mo0ocinDTHDunQUOEJIZ-73" value="AvailablePositions" style="shape=umlLifeline;perimeter=lifelinePerimeter;whiteSpace=wrap;html=1;container=1;dropTarget=0;collapsible=0;recursiveResize=0;outlineConnect=0;portConstraint=eastwest;newEdgeStyle={&quot;curved&quot;:0,&quot;rounded&quot;:0};fontSize=14;fontStyle=1" parent="1" vertex="1">
          <mxGeometry x="720" y="-40" width="150" height="1760" as="geometry" />
        </mxCell>
        <mxCell id="Mo0ocinDTHDunQUOEJIZ-55" value="" style="html=1;points=[[0,0,0,0,5],[0,1,0,0,-5],[1,0,0,0,5],[1,1,0,0,-5]];perimeter=orthogonalPerimeter;outlineConnect=0;targetShapes=umlLifeline;portConstraint=eastwest;newEdgeStyle={&quot;curved&quot;:0,&quot;rounded&quot;:0};strokeColor=#000000;fillColor=#dae8fc;" parent="Mo0ocinDTHDunQUOEJIZ-73" vertex="1">
          <mxGeometry x="70" y="790" width="10" height="60" as="geometry" />
        </mxCell>
        <mxCell id="Mo0ocinDTHDunQUOEJIZ-81" value="" style="endArrow=classic;html=1;rounded=0;" parent="1" edge="1">
          <mxGeometry width="50" height="50" relative="1" as="geometry">
            <mxPoint x="-24.99846153846189" y="780" as="sourcePoint" />
            <mxPoint x="786.04" y="780" as="targetPoint" />
          </mxGeometry>
        </mxCell>
        <mxCell id="Mo0ocinDTHDunQUOEJIZ-82" value="&quot;cal&quot;" style="text;html=1;align=center;verticalAlign=middle;resizable=0;points=[];autosize=1;strokeColor=none;fillColor=none;fontSize=13;fontStyle=2" parent="1" vertex="1">
          <mxGeometry x="35" y="748" width="50" height="30" as="geometry" />
        </mxCell>
        <mxCell id="Mo0ocinDTHDunQUOEJIZ-83" value="check details()" style="html=1;align=left;spacingLeft=2;endArrow=block;rounded=0;edgeStyle=orthogonalEdgeStyle;curved=0;rounded=0;fontSize=13;fontStyle=2" parent="1" edge="1">
          <mxGeometry relative="1" as="geometry">
            <mxPoint x="-15" y="270" as="sourcePoint" />
            <Array as="points">
              <mxPoint x="15" y="300" />
            </Array>
            <mxPoint x="-10" y="300.05882352941217" as="targetPoint" />
          </mxGeometry>
        </mxCell>
        <mxCell id="Mo0ocinDTHDunQUOEJIZ-84" value="EmailService" style="shape=umlLifeline;perimeter=lifelinePerimeter;whiteSpace=wrap;html=1;container=1;dropTarget=0;collapsible=0;recursiveResize=0;outlineConnect=0;portConstraint=eastwest;newEdgeStyle={&quot;curved&quot;:0,&quot;rounded&quot;:0};fontSize=14;fontStyle=1" parent="1" vertex="1">
          <mxGeometry x="920" y="-40" width="110" height="1440" as="geometry" />
        </mxCell>
        <mxCell id="Mo0ocinDTHDunQUOEJIZ-85" value="" style="html=1;points=[[0,0,0,0,5],[0,1,0,0,-5],[1,0,0,0,5],[1,1,0,0,-5]];perimeter=orthogonalPerimeter;outlineConnect=0;targetShapes=umlLifeline;portConstraint=eastwest;newEdgeStyle={&quot;curved&quot;:0,&quot;rounded&quot;:0};strokeColor=#000000;fillColor=#dae8fc;" parent="Mo0ocinDTHDunQUOEJIZ-84" vertex="1">
          <mxGeometry x="50" y="910" width="10" height="70" as="geometry" />
        </mxCell>
        <mxCell id="Mo0ocinDTHDunQUOEJIZ-89" value="" style="endArrow=classic;html=1;rounded=0;" parent="1" source="Mo0ocinDTHDunQUOEJIZ-8" edge="1">
          <mxGeometry width="50" height="50" relative="1" as="geometry">
            <mxPoint x="-479.00263157894705" y="896" as="sourcePoint" />
            <mxPoint x="971.55" y="896" as="targetPoint" />
          </mxGeometry>
        </mxCell>
        <mxCell id="Mo0ocinDTHDunQUOEJIZ-90" value="sendEmailToStudent()" style="text;html=1;align=center;verticalAlign=middle;resizable=0;points=[];autosize=1;strokeColor=none;fillColor=none;fontSize=13;fontStyle=2" parent="1" vertex="1">
          <mxGeometry x="-420" y="860" width="150" height="30" as="geometry" />
        </mxCell>
        <mxCell id="3IglLAVwiKZJhlWHmZd_-1" value="Database (MySQL)" style="shape=umlLifeline;perimeter=lifelinePerimeter;whiteSpace=wrap;html=1;container=1;dropTarget=0;collapsible=0;recursiveResize=0;outlineConnect=0;portConstraint=eastwest;newEdgeStyle={&quot;curved&quot;:0,&quot;rounded&quot;:0};fontSize=14;fontStyle=1" vertex="1" parent="1">
          <mxGeometry x="1080" y="-40" width="100" height="1720" as="geometry" />
        </mxCell>
        <mxCell id="3IglLAVwiKZJhlWHmZd_-4" value="" style="html=1;points=[[0,0,0,0,5],[0,1,0,0,-5],[1,0,0,0,5],[1,1,0,0,-5]];perimeter=orthogonalPerimeter;outlineConnect=0;targetShapes=umlLifeline;portConstraint=eastwest;newEdgeStyle={&quot;curved&quot;:0,&quot;rounded&quot;:0};strokeColor=#000000;fillColor=#dae8fc;" vertex="1" parent="3IglLAVwiKZJhlWHmZd_-1">
          <mxGeometry x="45" y="529" width="10" height="60" as="geometry" />
        </mxCell>
        <mxCell id="3IglLAVwiKZJhlWHmZd_-11" value="" style="html=1;points=[[0,0,0,0,5],[0,1,0,0,-5],[1,0,0,0,5],[1,1,0,0,-5]];perimeter=orthogonalPerimeter;outlineConnect=0;targetShapes=umlLifeline;portConstraint=eastwest;newEdgeStyle={&quot;curved&quot;:0,&quot;rounded&quot;:0};strokeColor=#000000;fillColor=#dae8fc;" vertex="1" parent="3IglLAVwiKZJhlWHmZd_-1">
          <mxGeometry x="45" y="1000" width="10" height="60" as="geometry" />
        </mxCell>
        <mxCell id="3IglLAVwiKZJhlWHmZd_-3" value="&quot;create Position&quot;" style="html=1;verticalAlign=bottom;endArrow=open;dashed=1;endSize=8;curved=0;rounded=0;fontSize=13;fontStyle=2" edge="1" parent="1">
          <mxGeometry x="-0.6679" y="-1" relative="1" as="geometry">
            <mxPoint x="578.5" y="519" as="sourcePoint" />
            <mxPoint x="1129.5" y="519" as="targetPoint" />
            <mxPoint as="offset" />
          </mxGeometry>
        </mxCell>
        <mxCell id="3IglLAVwiKZJhlWHmZd_-5" value="StudentDAORepository" style="shape=umlLifeline;perimeter=lifelinePerimeter;whiteSpace=wrap;html=1;container=1;dropTarget=0;collapsible=0;recursiveResize=0;outlineConnect=0;portConstraint=eastwest;newEdgeStyle={&quot;curved&quot;:0,&quot;rounded&quot;:0};fontSize=14;fontStyle=1" vertex="1" parent="1">
          <mxGeometry x="1210" y="-42" width="200" height="1400" as="geometry" />
        </mxCell>
        <mxCell id="3IglLAVwiKZJhlWHmZd_-6" value="" style="html=1;points=[[0,0,0,0,5],[0,1,0,0,-5],[1,0,0,0,5],[1,1,0,0,-5]];perimeter=orthogonalPerimeter;outlineConnect=0;targetShapes=umlLifeline;portConstraint=eastwest;newEdgeStyle={&quot;curved&quot;:0,&quot;rounded&quot;:0};strokeColor=#000000;fillColor=#dae8fc;" vertex="1" parent="3IglLAVwiKZJhlWHmZd_-5">
          <mxGeometry x="95" y="932" width="10" height="148" as="geometry" />
        </mxCell>
        <mxCell id="3IglLAVwiKZJhlWHmZd_-8" value="" style="endArrow=classic;html=1;rounded=0;" edge="1" parent="1" target="3IglLAVwiKZJhlWHmZd_-6">
          <mxGeometry width="50" height="50" relative="1" as="geometry">
            <mxPoint x="980" y="920" as="sourcePoint" />
            <mxPoint x="1300" y="920" as="targetPoint" />
          </mxGeometry>
        </mxCell>
        <mxCell id="3IglLAVwiKZJhlWHmZd_-10" value="findAvailableByLocation()" style="text;html=1;align=center;verticalAlign=middle;resizable=0;points=[];autosize=1;strokeColor=none;fillColor=none;fontSize=13;fontStyle=2" vertex="1" parent="1">
          <mxGeometry x="990" y="880" width="170" height="30" as="geometry" />
        </mxCell>
        <mxCell id="3IglLAVwiKZJhlWHmZd_-12" value="findStudentsByLocation()" style="text;html=1;align=center;verticalAlign=middle;resizable=0;points=[];autosize=1;strokeColor=none;fillColor=none;fontSize=13;fontStyle=2" vertex="1" parent="1">
          <mxGeometry x="1140" y="948" width="170" height="30" as="geometry" />
        </mxCell>
        <mxCell id="3IglLAVwiKZJhlWHmZd_-13" value="" style="endArrow=classic;html=1;rounded=0;" edge="1" parent="1">
          <mxGeometry width="50" height="50" relative="1" as="geometry">
            <mxPoint x="1309.5" y="978" as="sourcePoint" />
            <mxPoint x="1129.3235294117649" y="978" as="targetPoint" />
          </mxGeometry>
        </mxCell>
        <mxCell id="3IglLAVwiKZJhlWHmZd_-14" value="return Students" style="html=1;verticalAlign=bottom;endArrow=open;dashed=1;endSize=8;curved=0;rounded=0;fontSize=13;fontStyle=2" edge="1" parent="1">
          <mxGeometry relative="1" as="geometry">
            <mxPoint x="1135" y="1010" as="sourcePoint" />
            <mxPoint x="1310" y="1010" as="targetPoint" />
          </mxGeometry>
        </mxCell>
        <mxCell id="Mo0ocinDTHDunQUOEJIZ-95" value="" style="endArrow=classic;html=1;rounded=0;" parent="1" edge="1" source="3IglLAVwiKZJhlWHmZd_-15">
          <mxGeometry width="50" height="50" relative="1" as="geometry">
            <mxPoint x="-444.9984615384614" y="1099" as="sourcePoint" />
            <mxPoint x="786.04" y="1099" as="targetPoint" />
          </mxGeometry>
        </mxCell>
        <mxCell id="Mo0ocinDTHDunQUOEJIZ-96" value="&quot;call&quot;" style="text;html=1;align=center;verticalAlign=middle;resizable=0;points=[];autosize=1;strokeColor=none;fillColor=none;fontSize=13;fontStyle=2" parent="1" vertex="1">
          <mxGeometry x="-405" y="1070" width="50" height="30" as="geometry" />
        </mxCell>
        <mxCell id="3IglLAVwiKZJhlWHmZd_-16" value="" style="endArrow=classic;html=1;rounded=0;" edge="1" parent="1" target="3IglLAVwiKZJhlWHmZd_-15">
          <mxGeometry width="50" height="50" relative="1" as="geometry">
            <mxPoint x="-444.9984615384614" y="1099" as="sourcePoint" />
            <mxPoint x="786.04" y="1099" as="targetPoint" />
          </mxGeometry>
        </mxCell>
        <mxCell id="3IglLAVwiKZJhlWHmZd_-15" value="" style="html=1;points=[[0,0,0,0,5],[0,1,0,0,-5],[1,0,0,0,5],[1,1,0,0,-5]];perimeter=orthogonalPerimeter;outlineConnect=0;targetShapes=umlLifeline;portConstraint=eastwest;newEdgeStyle={&quot;curved&quot;:0,&quot;rounded&quot;:0};strokeColor=#000000;fillColor=#dae8fc;" vertex="1" parent="1">
          <mxGeometry x="-445" y="1080" width="10" height="50" as="geometry" />
        </mxCell>
      </root>
    </mxGraphModel>
  </diagram>
</mxfile>
